<mxfile host="app.diagrams.net" agent="Mozilla/5.0 (Windows NT 10.0; Win64; x64) AppleWebKit/537.36 (KHTML, like Gecko) Chrome/134.0.0.0 Safari/537.36" version="26.2.9">
  <diagram name="Page-1" id="G1eS5ST8XbBD6n9Xi0pV">
    <mxGraphModel dx="2176" dy="965" grid="1" gridSize="10" guides="1" tooltips="1" connect="1" arrows="1" fold="1" page="0" pageScale="1" pageWidth="850" pageHeight="1100" math="0" shadow="0">
      <root>
        <mxCell id="0" />
        <mxCell id="1" parent="0" />
        <mxCell id="Zjcale622EUWuU6XtLWA-1" value="Country" style="rounded=0;whiteSpace=wrap;html=1;" parent="1" vertex="1">
          <mxGeometry x="-40" y="760" width="120" height="60" as="geometry" />
        </mxCell>
        <mxCell id="Zjcale622EUWuU6XtLWA-2" value="Town" style="rounded=0;whiteSpace=wrap;html=1;" parent="1" vertex="1">
          <mxGeometry x="-40" y="860" width="120" height="60" as="geometry" />
        </mxCell>
        <mxCell id="Zjcale622EUWuU6XtLWA-3" value="Motorway" style="rounded=0;whiteSpace=wrap;html=1;" parent="1" vertex="1">
          <mxGeometry x="240" y="361" width="120" height="60" as="geometry" />
        </mxCell>
        <mxCell id="Zjcale622EUWuU6XtLWA-4" value="Foggy" style="rounded=0;whiteSpace=wrap;html=1;" parent="1" vertex="1">
          <mxGeometry x="-40" y="1199.5" width="120" height="60" as="geometry" />
        </mxCell>
        <mxCell id="Zjcale622EUWuU6XtLWA-5" value="Pedestrian" style="rounded=0;whiteSpace=wrap;html=1;" parent="1" vertex="1">
          <mxGeometry x="-40" y="960" width="120" height="60" as="geometry" />
        </mxCell>
        <mxCell id="Zjcale622EUWuU6XtLWA-6" value="AdverseWeather" style="rounded=0;whiteSpace=wrap;html=1;" parent="1" vertex="1">
          <mxGeometry x="-240" y="649.5" width="120" height="60" as="geometry" />
        </mxCell>
        <mxCell id="Zjcale622EUWuU6XtLWA-7" value="TouristMode" style="rounded=0;whiteSpace=wrap;html=1;fillColor=#f8cecc;strokeColor=#b85450;" parent="1" vertex="1">
          <mxGeometry x="390" y="-160" width="120" height="60" as="geometry" />
        </mxCell>
        <mxCell id="Zjcale622EUWuU6XtLWA-8" value="NoFunction" style="rounded=0;whiteSpace=wrap;html=1;fillColor=#647687;strokeColor=#314354;fontColor=#ffffff;" parent="1" vertex="1">
          <mxGeometry x="240" y="-160" width="120" height="60" as="geometry" />
        </mxCell>
        <mxCell id="Zjcale622EUWuU6XtLWA-9" value="HB&lt;div&gt;&lt;span style=&quot;background-color: transparent; color: light-dark(rgb(0, 0, 0), rgb(255, 255, 255));&quot;&gt;LS&lt;/span&gt;&lt;/div&gt;" style="rounded=0;whiteSpace=wrap;html=1;" parent="1" vertex="1">
          <mxGeometry x="240" y="200" width="120" height="60" as="geometry" />
        </mxCell>
        <mxCell id="Zjcale622EUWuU6XtLWA-10" value="HB&lt;div&gt;&lt;span style=&quot;background-color: transparent; color: light-dark(rgb(0, 0, 0), rgb(255, 255, 255));&quot;&gt;HS&lt;/span&gt;&lt;/div&gt;" style="rounded=0;whiteSpace=wrap;html=1;" parent="1" vertex="1">
          <mxGeometry x="240" y="280" width="120" height="60" as="geometry" />
        </mxCell>
        <mxCell id="Zjcale622EUWuU6XtLWA-11" value="V_LB/HBAuto(&amp;nbsp;0 -&amp;gt; 1 )" style="triangle;whiteSpace=wrap;html=1;" parent="1" vertex="1">
          <mxGeometry x="-40" y="80" width="200" height="80" as="geometry" />
        </mxCell>
        <mxCell id="Zjcale622EUWuU6XtLWA-12" value="V_LBReq(&amp;nbsp;0 -&amp;gt; 1 )" style="triangle;whiteSpace=wrap;html=1;" parent="1" vertex="1">
          <mxGeometry x="-40" y="240" width="200" height="80" as="geometry" />
        </mxCell>
        <mxCell id="Zjcale622EUWuU6XtLWA-13" value="V_HBReq(&amp;nbsp;0 -&amp;gt; 1 )" style="triangle;whiteSpace=wrap;html=1;" parent="1" vertex="1">
          <mxGeometry x="-40" y="160" width="200" height="80" as="geometry" />
        </mxCell>
        <mxCell id="O6gQimD1aN4FUH1nwuLm-14" style="edgeStyle=orthogonalEdgeStyle;rounded=0;orthogonalLoop=1;jettySize=auto;html=1;" edge="1" parent="1" source="Zjcale622EUWuU6XtLWA-15" target="O6gQimD1aN4FUH1nwuLm-12">
          <mxGeometry relative="1" as="geometry" />
        </mxCell>
        <mxCell id="Zjcale622EUWuU6XtLWA-15" value="V_Rain(&amp;nbsp;0 -&amp;gt; 1&amp;nbsp;)" style="triangle;whiteSpace=wrap;html=1;" parent="1" vertex="1">
          <mxGeometry x="-1160" y="520" width="200" height="80" as="geometry" />
        </mxCell>
        <mxCell id="O6gQimD1aN4FUH1nwuLm-29" style="edgeStyle=orthogonalEdgeStyle;rounded=0;orthogonalLoop=1;jettySize=auto;html=1;" edge="1" parent="1" source="Zjcale622EUWuU6XtLWA-16" target="O6gQimD1aN4FUH1nwuLm-58">
          <mxGeometry relative="1" as="geometry">
            <mxPoint x="-720" y="1200" as="targetPoint" />
          </mxGeometry>
        </mxCell>
        <mxCell id="O6gQimD1aN4FUH1nwuLm-81" value="Priority" style="edgeLabel;html=1;align=center;verticalAlign=middle;resizable=0;points=[];" vertex="1" connectable="0" parent="O6gQimD1aN4FUH1nwuLm-29">
          <mxGeometry x="0.0871" y="-1" relative="1" as="geometry">
            <mxPoint as="offset" />
          </mxGeometry>
        </mxCell>
        <mxCell id="Zjcale622EUWuU6XtLWA-16" value="V_FogSwitch(&amp;nbsp;0 -&amp;gt; 1&amp;nbsp;)" style="triangle;whiteSpace=wrap;html=1;" parent="1" vertex="1">
          <mxGeometry x="-1160" y="1080" width="200" height="80" as="geometry" />
        </mxCell>
        <mxCell id="Zjcale622EUWuU6XtLWA-18" value="V_RevGear(&amp;nbsp;0 -&amp;gt; 1 )" style="triangle;whiteSpace=wrap;html=1;" parent="1" vertex="1">
          <mxGeometry x="-40" y="320" width="200" height="80" as="geometry" />
        </mxCell>
        <mxCell id="O6gQimD1aN4FUH1nwuLm-11" value="" style="edgeStyle=orthogonalEdgeStyle;rounded=0;orthogonalLoop=1;jettySize=auto;html=1;" edge="1" parent="1" source="Zjcale622EUWuU6XtLWA-19" target="O6gQimD1aN4FUH1nwuLm-10">
          <mxGeometry relative="1" as="geometry" />
        </mxCell>
        <mxCell id="Zjcale622EUWuU6XtLWA-19" value="V_SceneDetection(&amp;nbsp;0 -&amp;gt; 30&amp;nbsp;)" style="triangle;whiteSpace=wrap;html=1;" parent="1" vertex="1">
          <mxGeometry x="-1160" y="880" width="200" height="80" as="geometry" />
        </mxCell>
        <mxCell id="Zjcale622EUWuU6XtLWA-24" value="V_ADBReq(&amp;nbsp;0 -&amp;gt; 1 )" style="triangle;whiteSpace=wrap;html=1;" parent="1" vertex="1">
          <mxGeometry x="-40" y="400" width="200" height="80" as="geometry" />
        </mxCell>
        <mxCell id="Zjcale622EUWuU6XtLWA-34" value="&lt;span style=&quot;font-style: normal;&quot;&gt;V_WiperRunning(&lt;/span&gt;&lt;span style=&quot;font-style: normal;&quot;&gt;&amp;nbsp;0 -&amp;gt; 1&amp;nbsp;&lt;/span&gt;&lt;span style=&quot;font-style: normal;&quot;&gt;)&lt;/span&gt;" style="triangle;whiteSpace=wrap;html=1;fontStyle=2;direction=east;" parent="1" vertex="1">
          <mxGeometry x="-1160" y="760" width="200" height="80" as="geometry" />
        </mxCell>
        <mxCell id="O6gQimD1aN4FUH1nwuLm-4" value="" style="edgeStyle=orthogonalEdgeStyle;rounded=0;orthogonalLoop=1;jettySize=auto;html=1;" edge="1" parent="1" source="O6gQimD1aN4FUH1nwuLm-1" target="O6gQimD1aN4FUH1nwuLm-3">
          <mxGeometry relative="1" as="geometry" />
        </mxCell>
        <mxCell id="O6gQimD1aN4FUH1nwuLm-1" value="C_RainSensorInstalled" style="triangle;whiteSpace=wrap;html=1;" vertex="1" parent="1">
          <mxGeometry x="-1160" y="600" width="200" height="80" as="geometry" />
        </mxCell>
        <mxCell id="O6gQimD1aN4FUH1nwuLm-5" value="" style="edgeStyle=orthogonalEdgeStyle;rounded=0;orthogonalLoop=1;jettySize=auto;html=1;" edge="1" parent="1" source="O6gQimD1aN4FUH1nwuLm-2" target="O6gQimD1aN4FUH1nwuLm-3">
          <mxGeometry relative="1" as="geometry" />
        </mxCell>
        <mxCell id="O6gQimD1aN4FUH1nwuLm-2" value="!V_RainSensorFail" style="triangle;whiteSpace=wrap;html=1;" vertex="1" parent="1">
          <mxGeometry x="-1160" y="680" width="200" height="80" as="geometry" />
        </mxCell>
        <mxCell id="O6gQimD1aN4FUH1nwuLm-13" value="" style="edgeStyle=orthogonalEdgeStyle;rounded=0;orthogonalLoop=1;jettySize=auto;html=1;" edge="1" parent="1" source="O6gQimD1aN4FUH1nwuLm-3" target="O6gQimD1aN4FUH1nwuLm-12">
          <mxGeometry relative="1" as="geometry" />
        </mxCell>
        <mxCell id="O6gQimD1aN4FUH1nwuLm-3" value="" style="shape=or;whiteSpace=wrap;html=1;" vertex="1" parent="1">
          <mxGeometry x="-880" y="640" width="60" height="80" as="geometry" />
        </mxCell>
        <mxCell id="O6gQimD1aN4FUH1nwuLm-9" value="" style="edgeStyle=orthogonalEdgeStyle;rounded=0;orthogonalLoop=1;jettySize=auto;html=1;" edge="1" parent="1" source="O6gQimD1aN4FUH1nwuLm-7">
          <mxGeometry relative="1" as="geometry">
            <mxPoint x="-880" y="960.0588235294117" as="targetPoint" />
          </mxGeometry>
        </mxCell>
        <mxCell id="O6gQimD1aN4FUH1nwuLm-7" value="!V_CameraFail" style="triangle;whiteSpace=wrap;html=1;" vertex="1" parent="1">
          <mxGeometry x="-1160" y="960" width="200" height="80" as="geometry" />
        </mxCell>
        <mxCell id="O6gQimD1aN4FUH1nwuLm-33" value="" style="edgeStyle=orthogonalEdgeStyle;rounded=0;orthogonalLoop=1;jettySize=auto;html=1;" edge="1" parent="1" source="O6gQimD1aN4FUH1nwuLm-10" target="O6gQimD1aN4FUH1nwuLm-32">
          <mxGeometry relative="1" as="geometry" />
        </mxCell>
        <mxCell id="O6gQimD1aN4FUH1nwuLm-86" value="LowPriority" style="edgeLabel;html=1;align=center;verticalAlign=middle;resizable=0;points=[];" vertex="1" connectable="0" parent="O6gQimD1aN4FUH1nwuLm-33">
          <mxGeometry x="-0.3247" y="-2" relative="1" as="geometry">
            <mxPoint as="offset" />
          </mxGeometry>
        </mxCell>
        <mxCell id="O6gQimD1aN4FUH1nwuLm-10" value="" style="shape=switch;whiteSpace=wrap;html=1;" vertex="1" parent="1">
          <mxGeometry x="-880" y="921" width="80" height="79" as="geometry" />
        </mxCell>
        <mxCell id="O6gQimD1aN4FUH1nwuLm-24" value="" style="edgeStyle=orthogonalEdgeStyle;rounded=0;orthogonalLoop=1;jettySize=auto;html=1;" edge="1" parent="1" source="O6gQimD1aN4FUH1nwuLm-12" target="O6gQimD1aN4FUH1nwuLm-23">
          <mxGeometry relative="1" as="geometry" />
        </mxCell>
        <mxCell id="O6gQimD1aN4FUH1nwuLm-12" value="" style="shape=switch;whiteSpace=wrap;html=1;" vertex="1" parent="1">
          <mxGeometry x="-760" y="640" width="80" height="79" as="geometry" />
        </mxCell>
        <mxCell id="O6gQimD1aN4FUH1nwuLm-17" value="" style="edgeStyle=orthogonalEdgeStyle;rounded=0;orthogonalLoop=1;jettySize=auto;html=1;" edge="1" parent="1" source="Zjcale622EUWuU6XtLWA-34" target="O6gQimD1aN4FUH1nwuLm-16">
          <mxGeometry relative="1" as="geometry">
            <mxPoint x="-960" y="800" as="sourcePoint" />
            <mxPoint x="-720" y="719" as="targetPoint" />
          </mxGeometry>
        </mxCell>
        <mxCell id="O6gQimD1aN4FUH1nwuLm-26" style="edgeStyle=orthogonalEdgeStyle;rounded=0;orthogonalLoop=1;jettySize=auto;html=1;" edge="1" parent="1">
          <mxGeometry relative="1" as="geometry">
            <mxPoint x="-640" y="680" as="targetPoint" />
            <mxPoint x="-780" y="799" as="sourcePoint" />
            <Array as="points">
              <mxPoint x="-660" y="799" />
              <mxPoint x="-660" y="680" />
              <mxPoint x="-640" y="680" />
            </Array>
          </mxGeometry>
        </mxCell>
        <mxCell id="O6gQimD1aN4FUH1nwuLm-16" value="x TimeElapsed" style="shape=hexagon;perimeter=hexagonPerimeter2;whiteSpace=wrap;html=1;fixedSize=1;" vertex="1" parent="1">
          <mxGeometry x="-900" y="760" width="120" height="80" as="geometry" />
        </mxCell>
        <mxCell id="O6gQimD1aN4FUH1nwuLm-31" value="" style="edgeStyle=orthogonalEdgeStyle;rounded=0;orthogonalLoop=1;jettySize=auto;html=1;" edge="1" parent="1" source="O6gQimD1aN4FUH1nwuLm-23" target="O6gQimD1aN4FUH1nwuLm-30">
          <mxGeometry relative="1" as="geometry" />
        </mxCell>
        <mxCell id="O6gQimD1aN4FUH1nwuLm-23" value="" style="shape=xor;whiteSpace=wrap;html=1;" vertex="1" parent="1">
          <mxGeometry x="-640" y="640" width="60" height="80" as="geometry" />
        </mxCell>
        <mxCell id="O6gQimD1aN4FUH1nwuLm-30" value="I_Rain( -1 -&amp;gt; 1 )" style="triangle;whiteSpace=wrap;html=1;" vertex="1" parent="1">
          <mxGeometry x="-520" y="640" width="200" height="80" as="geometry" />
        </mxCell>
        <mxCell id="O6gQimD1aN4FUH1nwuLm-32" value="I_SceneDetection(&amp;nbsp;-1 -&amp;gt; 30&amp;nbsp;)" style="triangle;whiteSpace=wrap;html=1;" vertex="1" parent="1">
          <mxGeometry x="-520" y="921" width="200" height="80" as="geometry" />
        </mxCell>
        <mxCell id="O6gQimD1aN4FUH1nwuLm-34" value="I_Fog(&amp;nbsp;-1 -&amp;gt; 1&amp;nbsp;)" style="triangle;whiteSpace=wrap;html=1;" vertex="1" parent="1">
          <mxGeometry x="-520" y="1200" width="200" height="80" as="geometry" />
        </mxCell>
        <mxCell id="O6gQimD1aN4FUH1nwuLm-42" value="" style="edgeStyle=orthogonalEdgeStyle;rounded=0;orthogonalLoop=1;jettySize=auto;html=1;" edge="1" parent="1" target="O6gQimD1aN4FUH1nwuLm-34">
          <mxGeometry relative="1" as="geometry">
            <mxPoint x="-580" y="1239" as="sourcePoint" />
          </mxGeometry>
        </mxCell>
        <mxCell id="O6gQimD1aN4FUH1nwuLm-41" style="edgeStyle=orthogonalEdgeStyle;rounded=0;orthogonalLoop=1;jettySize=auto;html=1;" edge="1" parent="1" source="O6gQimD1aN4FUH1nwuLm-37">
          <mxGeometry relative="1" as="geometry">
            <mxPoint x="-640" y="1240" as="targetPoint" />
            <Array as="points">
              <mxPoint x="-660" y="1360" />
              <mxPoint x="-660" y="1240" />
            </Array>
          </mxGeometry>
        </mxCell>
        <mxCell id="O6gQimD1aN4FUH1nwuLm-37" value="V_CameraFog(&amp;nbsp;0 -&amp;gt; 1&amp;nbsp;)" style="triangle;whiteSpace=wrap;html=1;" vertex="1" parent="1">
          <mxGeometry x="-1160" y="1319.5" width="200" height="80" as="geometry" />
        </mxCell>
        <mxCell id="O6gQimD1aN4FUH1nwuLm-43" style="edgeStyle=orthogonalEdgeStyle;rounded=0;orthogonalLoop=1;jettySize=auto;html=1;" edge="1" parent="1" source="O6gQimD1aN4FUH1nwuLm-44" target="O6gQimD1aN4FUH1nwuLm-52">
          <mxGeometry relative="1" as="geometry" />
        </mxCell>
        <mxCell id="O6gQimD1aN4FUH1nwuLm-44" value="V_Night(&amp;nbsp;0 -&amp;gt; 1&amp;nbsp;)" style="triangle;whiteSpace=wrap;html=1;" vertex="1" parent="1">
          <mxGeometry x="-1160" y="1440" width="200" height="80" as="geometry" />
        </mxCell>
        <mxCell id="O6gQimD1aN4FUH1nwuLm-45" value="" style="edgeStyle=orthogonalEdgeStyle;rounded=0;orthogonalLoop=1;jettySize=auto;html=1;" edge="1" parent="1" source="O6gQimD1aN4FUH1nwuLm-46" target="O6gQimD1aN4FUH1nwuLm-50">
          <mxGeometry relative="1" as="geometry" />
        </mxCell>
        <mxCell id="O6gQimD1aN4FUH1nwuLm-46" value="C_NightSensorInstalled" style="triangle;whiteSpace=wrap;html=1;" vertex="1" parent="1">
          <mxGeometry x="-1160" y="1519.5" width="200" height="80" as="geometry" />
        </mxCell>
        <mxCell id="O6gQimD1aN4FUH1nwuLm-47" value="" style="edgeStyle=orthogonalEdgeStyle;rounded=0;orthogonalLoop=1;jettySize=auto;html=1;" edge="1" parent="1" target="O6gQimD1aN4FUH1nwuLm-50">
          <mxGeometry relative="1" as="geometry">
            <mxPoint x="-960.1190476190482" y="1639.4761904761904" as="sourcePoint" />
          </mxGeometry>
        </mxCell>
        <mxCell id="O6gQimD1aN4FUH1nwuLm-48" value="!V_NightSensorFail" style="triangle;whiteSpace=wrap;html=1;" vertex="1" parent="1">
          <mxGeometry x="-1160" y="1599.5" width="200" height="80" as="geometry" />
        </mxCell>
        <mxCell id="O6gQimD1aN4FUH1nwuLm-49" value="" style="edgeStyle=orthogonalEdgeStyle;rounded=0;orthogonalLoop=1;jettySize=auto;html=1;" edge="1" parent="1" source="O6gQimD1aN4FUH1nwuLm-50" target="O6gQimD1aN4FUH1nwuLm-52">
          <mxGeometry relative="1" as="geometry" />
        </mxCell>
        <mxCell id="O6gQimD1aN4FUH1nwuLm-50" value="" style="shape=or;whiteSpace=wrap;html=1;" vertex="1" parent="1">
          <mxGeometry x="-880" y="1559.5" width="60" height="80" as="geometry" />
        </mxCell>
        <mxCell id="O6gQimD1aN4FUH1nwuLm-51" value="" style="edgeStyle=orthogonalEdgeStyle;rounded=0;orthogonalLoop=1;jettySize=auto;html=1;" edge="1" parent="1" source="O6gQimD1aN4FUH1nwuLm-52" target="O6gQimD1aN4FUH1nwuLm-55">
          <mxGeometry relative="1" as="geometry" />
        </mxCell>
        <mxCell id="O6gQimD1aN4FUH1nwuLm-52" value="" style="shape=switch;whiteSpace=wrap;html=1;" vertex="1" parent="1">
          <mxGeometry x="-760" y="1560" width="80" height="79" as="geometry" />
        </mxCell>
        <mxCell id="O6gQimD1aN4FUH1nwuLm-53" value="I_Night(&amp;nbsp;-1 -&amp;gt; 1&amp;nbsp;)" style="triangle;whiteSpace=wrap;html=1;" vertex="1" parent="1">
          <mxGeometry x="-520" y="1559" width="200" height="80" as="geometry" />
        </mxCell>
        <mxCell id="O6gQimD1aN4FUH1nwuLm-54" value="" style="edgeStyle=orthogonalEdgeStyle;rounded=0;orthogonalLoop=1;jettySize=auto;html=1;" edge="1" parent="1" source="O6gQimD1aN4FUH1nwuLm-55" target="O6gQimD1aN4FUH1nwuLm-53">
          <mxGeometry relative="1" as="geometry" />
        </mxCell>
        <mxCell id="O6gQimD1aN4FUH1nwuLm-55" value="&lt;font style=&quot;font-size: 20px;&quot;&gt;/&lt;/font&gt;" style="shape=xor;whiteSpace=wrap;html=1;" vertex="1" parent="1">
          <mxGeometry x="-640" y="1559" width="60" height="80" as="geometry" />
        </mxCell>
        <mxCell id="O6gQimD1aN4FUH1nwuLm-56" style="edgeStyle=orthogonalEdgeStyle;rounded=0;orthogonalLoop=1;jettySize=auto;html=1;" edge="1" parent="1" source="O6gQimD1aN4FUH1nwuLm-57">
          <mxGeometry relative="1" as="geometry">
            <mxPoint x="-640" y="1600" as="targetPoint" />
            <Array as="points">
              <mxPoint x="-660" y="1720" />
              <mxPoint x="-660" y="1600" />
            </Array>
          </mxGeometry>
        </mxCell>
        <mxCell id="O6gQimD1aN4FUH1nwuLm-57" value="V_CameraNight(&amp;nbsp;0 -&amp;gt; 1&amp;nbsp;)" style="triangle;whiteSpace=wrap;html=1;" vertex="1" parent="1">
          <mxGeometry x="-1160" y="1679.5" width="200" height="80" as="geometry" />
        </mxCell>
        <mxCell id="O6gQimD1aN4FUH1nwuLm-58" value="" style="shape=xor;whiteSpace=wrap;html=1;" vertex="1" parent="1">
          <mxGeometry x="-640" y="1200" width="60" height="80" as="geometry" />
        </mxCell>
        <mxCell id="O6gQimD1aN4FUH1nwuLm-59" value="" style="edgeStyle=orthogonalEdgeStyle;rounded=0;orthogonalLoop=1;jettySize=auto;html=1;" edge="1" parent="1" source="O6gQimD1aN4FUH1nwuLm-60" target="O6gQimD1aN4FUH1nwuLm-64">
          <mxGeometry relative="1" as="geometry" />
        </mxCell>
        <mxCell id="O6gQimD1aN4FUH1nwuLm-60" value="V_Speed(&amp;nbsp;0 -&amp;gt; 1000 )" style="triangle;whiteSpace=wrap;html=1;" vertex="1" parent="1">
          <mxGeometry x="-1160" y="320" width="200" height="80" as="geometry" />
        </mxCell>
        <mxCell id="O6gQimD1aN4FUH1nwuLm-61" value="" style="edgeStyle=orthogonalEdgeStyle;rounded=0;orthogonalLoop=1;jettySize=auto;html=1;" edge="1" parent="1" source="O6gQimD1aN4FUH1nwuLm-62">
          <mxGeometry relative="1" as="geometry">
            <mxPoint x="-880" y="400.0588235294117" as="targetPoint" />
          </mxGeometry>
        </mxCell>
        <mxCell id="O6gQimD1aN4FUH1nwuLm-62" value="!V_SpeedSensorFail" style="triangle;whiteSpace=wrap;html=1;" vertex="1" parent="1">
          <mxGeometry x="-1160" y="400" width="200" height="80" as="geometry" />
        </mxCell>
        <mxCell id="O6gQimD1aN4FUH1nwuLm-63" value="" style="edgeStyle=orthogonalEdgeStyle;rounded=0;orthogonalLoop=1;jettySize=auto;html=1;" edge="1" parent="1" source="O6gQimD1aN4FUH1nwuLm-64" target="O6gQimD1aN4FUH1nwuLm-65">
          <mxGeometry relative="1" as="geometry" />
        </mxCell>
        <mxCell id="O6gQimD1aN4FUH1nwuLm-64" value="" style="shape=switch;whiteSpace=wrap;html=1;" vertex="1" parent="1">
          <mxGeometry x="-880" y="361" width="80" height="79" as="geometry" />
        </mxCell>
        <mxCell id="O6gQimD1aN4FUH1nwuLm-65" value="I_Speed(&amp;nbsp;-1 -&amp;gt; 1000 )" style="triangle;whiteSpace=wrap;html=1;" vertex="1" parent="1">
          <mxGeometry x="-520" y="361" width="200" height="80" as="geometry" />
        </mxCell>
        <mxCell id="O6gQimD1aN4FUH1nwuLm-80" value="V_CANFail(&amp;nbsp;0 -&amp;gt; 1 )" style="triangle;whiteSpace=wrap;html=1;" vertex="1" parent="1">
          <mxGeometry x="-40" y="-40" width="200" height="80" as="geometry" />
        </mxCell>
        <mxCell id="O6gQimD1aN4FUH1nwuLm-85" style="edgeStyle=orthogonalEdgeStyle;rounded=0;orthogonalLoop=1;jettySize=auto;html=1;" edge="1" parent="1" source="O6gQimD1aN4FUH1nwuLm-82">
          <mxGeometry relative="1" as="geometry">
            <mxPoint x="-610" y="1640" as="targetPoint" />
          </mxGeometry>
        </mxCell>
        <mxCell id="O6gQimD1aN4FUH1nwuLm-82" value="Above x Threshold" style="shape=hexagon;perimeter=hexagonPerimeter2;whiteSpace=wrap;html=1;fixedSize=1;" vertex="1" parent="1">
          <mxGeometry x="-910" y="1759.5" width="120" height="80" as="geometry" />
        </mxCell>
        <mxCell id="O6gQimD1aN4FUH1nwuLm-84" value="" style="edgeStyle=orthogonalEdgeStyle;rounded=0;orthogonalLoop=1;jettySize=auto;html=1;" edge="1" parent="1" source="O6gQimD1aN4FUH1nwuLm-83" target="O6gQimD1aN4FUH1nwuLm-82">
          <mxGeometry relative="1" as="geometry" />
        </mxCell>
        <mxCell id="O6gQimD1aN4FUH1nwuLm-83" value="V_AmbientLight(&amp;nbsp;0 -&amp;gt; 1000 )" style="triangle;whiteSpace=wrap;html=1;" vertex="1" parent="1">
          <mxGeometry x="-1160" y="1759.5" width="200" height="80" as="geometry" />
        </mxCell>
        <mxCell id="O6gQimD1aN4FUH1nwuLm-87" value="H.I Modes takes priority" style="text;html=1;align=center;verticalAlign=middle;resizable=0;points=[];autosize=1;strokeColor=none;fillColor=none;" vertex="1" parent="1">
          <mxGeometry x="-780" y="975" width="150" height="30" as="geometry" />
        </mxCell>
        <mxCell id="O6gQimD1aN4FUH1nwuLm-88" value="I_Speed(&amp;nbsp;-1 -&amp;gt; 1000 )" style="triangle;whiteSpace=wrap;html=1;" vertex="1" parent="1">
          <mxGeometry x="-520" y="440" width="200" height="80" as="geometry" />
        </mxCell>
      </root>
    </mxGraphModel>
  </diagram>
</mxfile>
